<svg xmlns="http://www.w3.org/2000/svg" width="430" height="430" style="width:100%;height:100%;transform:translate3d(0,0,0);content-visibility:visible" viewBox="0 0 430 430"><defs><clipPath id="i"><path d="M0 0h430v430H0z"/></clipPath><clipPath id="o"><path d="M0 0h430v430H0z"/></clipPath><clipPath id="p"><path d="M0 0h430v430H0z"/></clipPath><clipPath id="j"><path d="M0 0h430v430H0z"/></clipPath><clipPath id="k"><path d="M0 0h430v430H0z"/></clipPath><filter id="a" width="100%" height="100%" x="0%" y="0%" filterUnits="objectBoundingBox"><feComponentTransfer in="SourceGraphic"><feFuncA tableValues="1.0 0.0" type="table"/></feComponentTransfer></filter><filter id="c" width="100%" height="100%" x="0%" y="0%" filterUnits="objectBoundingBox"><feComponentTransfer in="SourceGraphic"><feFuncA tableValues="1.0 0.0" type="table"/></feComponentTransfer></filter><filter id="e" width="100%" height="100%" x="0%" y="0%" filterUnits="objectBoundingBox"><feComponentTransfer in="SourceGraphic"><feFuncA tableValues="1.0 0.0" type="table"/></feComponentTransfer></filter><filter id="g" width="100%" height="100%" x="0%" y="0%" filterUnits="objectBoundingBox"><feComponentTransfer in="SourceGraphic"><feFuncA tableValues="1.0 0.0" type="table"/></feComponentTransfer></filter><mask id="r" mask-type="alpha"><g filter="url(#a)"><path fill="#fff" d="M0 0h430v430H0z" opacity="0"/><use xmlns:ns1="http://www.w3.org/1999/xlink" ns1:href="#b"/></g></mask><mask id="q" mask-type="alpha"><g filter="url(#c)"><path fill="#fff" d="M0 0h430v430H0z" opacity="0"/><use xmlns:ns2="http://www.w3.org/1999/xlink" ns2:href="#d"/></g></mask><mask id="n" mask-type="alpha"><g filter="url(#e)"><path fill="#fff" d="M0 0h430v430H0z" opacity="0"/><use xmlns:ns3="http://www.w3.org/1999/xlink" ns3:href="#f"/></g></mask><mask id="m" mask-type="alpha"><g filter="url(#g)"><path fill="#fff" d="M0 0h430v430H0z" opacity="0"/><use xmlns:ns4="http://www.w3.org/1999/xlink" ns4:href="#h"/></g></mask><path id="d" style="display:none"/><path id="b" style="display:none"/><path id="h" fill="#121331" d="M338.505 233.5c38 0 68.894 30.895 68.894 68.931 0 38-30.895 68.894-68.894 68.894-38.036 0-68.93-30.895-68.93-68.894 0-38.036 30.894-68.93 68.93-68.93" class="primary" style="display:block"/><g id="f" style="display:block"><path fill="#121331" d="M123.412 130.986c-24.497-.6-30.365 13.029-13.096 30.414l76.168 76.675c17.27 17.385 44.952 17.036 61.777-.78l64.828-68.64c16.825-17.816 10.596-32.767-13.9-33.366z" class="primary"/><path fill-opacity="0" stroke="#08A88A" stroke-width="0" d="M123.412 130.986c-24.497-.6-30.365 13.029-13.096 30.414l76.168 76.675c17.27 17.385 44.952 17.036 61.777-.78l64.828-68.64c16.825-17.816 10.596-32.767-13.9-33.366z" class="secondary"/></g></defs><g clip-path="url(#i)"><g clip-path="url(#j)" style="display:block"><g clip-path="url(#k)" mask="url(#m)" style="display:block"><g fill="none" style="display:block"><path d="M159.363 206.064a100.6 100.6 0 0 1-13.09-11.055l-86.218-86.384m313.59.015-86.224 86.374a100 100 0 0 1-8.478 7.587" class="secondary"/><path stroke="#121331" stroke-linecap="round" stroke-linejoin="round" stroke-width="11.84" d="m60.04 108.625 130.665 130.917c14.425 14.454 37.851 14.455 52.278.003L373.63 108.669" class="primary"/><path stroke="#121331" stroke-linecap="round" stroke-linejoin="round" stroke-width="11.84" d="M57.802 105.91v210.84h318.344V105.935z" class="primary"/></g><g mask="url(#n)" style="display:block"><path fill="none" stroke="#121331" stroke-linecap="round" stroke-linejoin="round" stroke-width="11.84" d="M219.092 195.92c26.688.417 53.232 9.478 73.564 27.18 0-.003 78.662 68.471 78.662 68.471m-307.1-1.328 77.609-67.292c21.292-18.463 49.356-27.469 77.265-27.032" class="primary"/></g></g><path fill="none" stroke="#08A88A" stroke-width="3.2" d="M0-18.625c10.28 0 18.625 8.346 18.625 18.625S10.279 18.625 0 18.625-18.625 10.279-18.625 0-10.279-18.625 0-18.625z" class="secondary" style="display:block" transform="matrix(3.7 0 0 3.7 338.487 302.413)"/><path fill="none" stroke="#08A88A" stroke-linecap="round" stroke-linejoin="round" stroke-width="3.2" d="m23.805 26.493 5.695 5.695 13.502-13.546" class="secondary" style="display:block" transform="matrix(3.7 0 0 3.7 215 213.613)"/></g><g clip-path="url(#o)" style="display:none"><g clip-path="url(#p)" mask="url(#q)" style="display:none"><path fill="none" class="secondary" style="display:none"/><path fill="none" class="primary" style="display:none"/><g mask="url(#r)" style="display:none"><path fill="none" class="primary"/></g><path fill="none" class="primary" style="display:none"/></g><path fill="none" class="secondary" style="display:none"/><path fill="none" class="secondary" style="display:none"/></g></g></svg>